# File created by Blade
# Date/Time:  Tue Sep 30 19:36:22 2014
#---------------------------------------------------------
:version 1.10
:name HOM
:units
  mass 1.0
  length 1.000000
  angle deg
:documentation
     Acclaim Skeleton File
:root
   axis xyz
   order TX TY TZ RX RY RZ
   position 0.000000 0.000000 0.000000
   orientation 0 0 0
:bonedata
   begin
      id 1
      name Spine_dum
      direction 0.000000 1.000000 0.000000
      length 3.241213
      axis 0.0 0.0 0.0 xyz
   end
   begin
      id 2
      name LeftUpLeg_dum
      direction 1.000000 0.000000 0.000000
      length 3.434019
      axis 0.0 0.0 0.0 xyz
   end
   begin
      id 3
      name RightUpLeg_dum
      direction -1.000000 0.000000 0.000000
      length 3.434019
      axis 0.0 0.0 0.0 xyz
   end
   begin
      id 4
      name Spine
      direction 0.000000 1.000000 0.000000
      length 0.000000
      axis 0.0 0.0 0.0 xyz
      dof rx ry rz
   end
   begin
      id 5
      name Spine_dum1
      direction 0.000000 1.000000 0.000000
      length 18.382958
      axis 0.0 0.0 0.0 xyz
   end
   begin
      id 6
      name Spine_dum2
      direction 0.000000 1.000000 0.000000
      length 12.828261
      axis 0.0 0.0 0.0 xyz
   end
   begin
      id 7
      name Spine_dum3
      direction 0.000000 1.000000 0.000000
      length 12.828261
      axis 0.0 0.0 0.0 xyz
   end
   begin
      id 8
      name Head
      direction 0.000000 1.000000 0.000000
      length 4.527550
      axis 0.0 0.0 0.0 xyz
      dof rx ry rz
   end
   begin
      id 9
      name LeftShoulder
      direction 1.000000 0.000000 0.000000
      length 7.748055
      axis 0.0 0.0 -90.0 xyz
      dof rx ry rz
   end
   begin
      id 10
      name LeftArm
      direction 1.000000 0.000000 0.000000
      length 10.635614
      axis 0.0 0.0 -90.0 xyz
      dof rx ry rz
   end
   begin
      id 11
      name LeftForeArm
      direction 1.000000 0.000000 0.000000
      length 8.346755
      axis 0.0 0.0 -90.0 xyz
      dof ry rz rx
   end
   begin
      id 12
      name LeftHand
      direction 0.000000 0.000000 0.000000
      length 0.000000
      axis 0.0 0.0 -90.0 xyz
      dof rx ry rz
   end
   begin
      id 13
      name LeftHand_dum1
      direction 0.000000 0.000000 0.000000
      length 0.000000
      axis 0.0 0.0 -90.0 xyz
   end
   begin
      id 14
      name LeftHand_dum2
      direction 1.000000 0.000000 0.000000
      length 3.937000
      axis 0.0 0.0 -90.0 xyz
   end
   begin
      id 15
      name LeftHandThumb1
      direction 0.000000 0.000000 1.000000
      length 3.937000
      axis 0.0 0.0 -90.0 xyz
      dof rx rz ry
   end
   begin
      id 16
      name RightShoulder
      direction -1.000000 0.000000 0.000000
      length 7.748055
      axis 0.0 0.0 90.0 xyz
      dof rx ry rz
   end
   begin
      id 17
      name RightArm
      direction -1.000000 0.000000 0.000000
      length 10.635614
      axis 0.0 0.0 90.0 xyz
      dof rx ry rz
   end
   begin
      id 18
      name RightForeArm
      direction -1.000000 0.000000 0.000000
      length 8.346755
      axis 0.0 0.0 90.0 xyz
      dof ry rz rx
   end
   begin
      id 19
      name RightHand
      direction 0.000000 0.000000 0.000000
      length 0.000000
      axis 0.0 0.0 90.0 xyz
      dof rx ry rz
   end
   begin
      id 20
      name RightHand_dum1
      direction 0.000000 0.000000 0.000000
      length 0.000000
      axis 0.0 0.0 90.0 xyz
   end
   begin
      id 21
      name RightHand_dum2
      direction -1.000000 0.000000 0.000000
      length 3.937000
      axis 0.0 0.0 90.0 xyz
   end
   begin
      id 22
      name RightHandThumb1
      direction 0.000000 0.000000 1.000000
      length 3.937000
      axis 0.0 0.0 90.0 xyz
      dof rx rz ry
   end
   begin
      id 23
      name LeftUpLeg
      direction 0.000000 -1.000000 0.000000
      length 15.713025
      axis 0.0 0.0 0.0 xyz
      dof rx ry rz
   end
   begin
      id 24
      name LeftLeg
      direction 0.000000 -1.000000 0.000000
      length 14.435119
      axis 0.0 0.0 0.0 xyz
      dof rx ry rz
   end
   begin
      id 25
      name LeftFoot
      direction 0.000000 -0.258819 0.965926
      length 4.938895
      axis 15.0 0.0 0.0 xyz
      dof rx ry rz
   end
   begin
      id 26
      name LeftToeBase
      direction 0.000000 0.000000 1.000000
      length 2.952750
      axis 0.0 0.0 0.0 xyz
      dof rx ry rz
   end
   begin
      id 27
      name RightUpLeg
      direction 0.000000 -1.000000 0.000000
      length 15.713025
      axis 0.0 0.0 0.0 xyz
      dof rx ry rz
   end
   begin
      id 28
      name RightLeg
      direction 0.000000 -1.000000 0.000000
      length 14.435119
      axis 0.0 0.0 0.0 xyz
      dof rx ry rz
   end
   begin
      id 29
      name RightFoot
      direction 0.000000 -0.258819 0.965926
      length 4.938895
      axis 15.0 0.0 0.0 xyz
      dof rx ry rz
   end
   begin
      id 30
      name RightToeBase
      direction 0.000000 0.000000 1.000000
      length 2.952750
      axis 0.0 0.0 0.0 xyz
      dof rx ry rz
   end
:hierarchy
   begin
      root Spine_dum LeftUpLeg_dum RightUpLeg_dum
      Spine_dum Spine
      LeftUpLeg_dum LeftUpLeg
      RightUpLeg_dum RightUpLeg
      Spine Spine_dum1 Spine_dum2 Spine_dum3
      Spine_dum1 Head
      Spine_dum2 LeftShoulder
      Spine_dum3 RightShoulder
      LeftShoulder LeftArm
      LeftArm LeftForeArm
      LeftForeArm LeftHand
      LeftHand LeftHand_dum1 LeftHand_dum2
      LeftHand_dum1 LeftHandThumb1
      RightShoulder RightArm
      RightArm RightForeArm
      RightForeArm RightHand
      RightHand RightHand_dum1 RightHand_dum2
      RightHand_dum1 RightHandThumb1
      LeftUpLeg LeftLeg
      LeftLeg LeftFoot
      LeftFoot LeftToeBase
      RightUpLeg RightLeg
      RightLeg RightFoot
      RightFoot RightToeBase
   end

# File created by Blade
# Date/Time:  Tue Sep 23 19:18:47 2014
# Frame Rate: 120.000 fps
#------------------------------------------------------
:FULLY-SPECIFIED
:DEGREES
561
root -0.027636 35.689866 0.881597 91.892335 11.216494 -53.806065
Spine -57.883869 7.318994 35.339760
Head -2.342563 16.520246 51.074004
LeftShoulder -15.169827 38.483609 34.923114
LeftArm 67.439767 -49.466428 -79.618704
LeftForeArm 10.876950 0.000000 110.272360
LeftHand -62.979766 -0.000000 15.019215
LeftHandThumb1 -26.253704 0.000000 33.147579
RightShoulder -36.471216 -38.383249 6.755009
RightArm 48.955763 51.750219 81.752297
RightForeArm 105.838744 -0.000000 0.091425
RightHand -3.012726 -0.000000 27.801669
RightHandThumb1 -24.326973 -0.000000 -32.862282
LeftUpLeg -112.191198 46.982291 -15.267936
LeftLeg 2.193295 -0.000000 -0.000000
LeftFoot 8.110649 12.045573 20.695807
LeftToeBase -6.495966 -0.000000 0.000000
RightUpLeg -12.736655 -19.533063 -49.805816
RightLeg 75.355813 -0.000000 -0.000000
RightFoot 30.624665 6.768457 -4.329885
RightToeBase 34.730629 -0.000000 -0.000000
562
root -0.053653 35.692324 0.839273 91.730461 11.181200 -53.857366
Spine -57.653042 7.280323 35.235475
Head -2.191223 16.389777 51.020426
LeftShoulder -15.096264 38.533039 34.897767
LeftArm 67.709527 -49.685239 -79.808927
LeftForeArm 10.611270 -0.000000 110.226118
LeftHand -62.923947 0.000000 15.032628
LeftHandThumb1 -26.253704 0.000000 33.147579
RightShoulder -36.431717 -38.356676 6.455760
RightArm 48.595593 51.475213 81.253135
RightForeArm 105.827592 -0.000000 -0.331894
RightHand -2.987336 0.000000 27.844050
RightHandThumb1 -24.326973 -0.000000 -32.862282
LeftUpLeg -112.806375 46.602206 -16.102368
LeftLeg 2.236402 -0.000000 -0.000000
LeftFoot 8.208847 12.404908 20.718566
LeftToeBase -6.241331 -0.000000 0.000000
RightUpLeg -12.496277 -19.042261 -49.998790
RightLeg 75.145555 -0.000000 -0.000000
RightFoot 30.445887 6.662120 -4.419086
RightToeBase 34.875548 -0.000000 -0.000000
563
root -0.080444 35.684219 0.801094 91.579090 11.105717 -53.897120
Spine -57.473047 7.265496 35.106357
Head -2.008664 16.283581 50.877281
LeftShoulder -15.009482 38.536567 34.879317
LeftArm 67.883277 -49.878368 -79.904153
LeftForeArm 10.209858 -0.000000 110.141974
LeftHand -62.864408 -0.000000 15.040145
LeftHandThumb1 -26.253704 0.000000 33.147579
RightShoulder -36.410073 -38.702453 6.311004
RightArm 48.593386 51.385344 81.168452
RightForeArm 105.871416 -0.000000 -0.650994
RightHand -3.307172 0.000000 27.769766
RightHandThumb1 -24.326973 -0.000000 -32.862282
LeftUpLeg -113.293284 46.224533 -16.852432
LeftLeg 2.242757 -0.000000 -0.000000
LeftFoot 8.247268 12.923033 20.863736
LeftToeBase -5.818573 -0.000000 0.000000
RightUpLeg -12.212728 -18.613892 -50.241580
RightLeg 74.867541 -0.000000 -0.000000
RightFoot 30.437550 6.599828 -4.400442
RightToeBase 35.024488 -0.000000 -0.000000
564
root -0.113541 35.664072 0.765086 91.335513 11.016584 -53.994036
Spine -57.219589 7.240930 35.030497
Head -1.734485 16.187752 50.690795
LeftShoulder -14.991615 38.591101 34.813450
LeftArm 68.139217 -50.031618 -80.062540
LeftForeArm 9.846852 -0.000000 110.004443
LeftHand -62.782183 0.000000 14.850012
LeftHandThumb1 -26.253704 0.000000 33.147579
RightShoulder -36.277402 -38.813001 5.903290
RightArm 48.038447 51.067176 80.548373
RightForeArm 106.067476 -0.000000 -1.000820
RightHand -3.545962 -0.000000 27.698595
RightHandThumb1 -24.326973 -0.000000 -32.862282
LeftUpLeg -113.602586 45.987598 -17.449501
LeftLeg 2.230267 -0.000000 -0.000000
LeftFoot 8.112777 13.608531 20.986569
LeftToeBase -5.241584 -0.000000 0.000000
RightUpLeg -11.879153 -18.132071 -50.484232
RightLeg 74.540437 -0.000000 -0.000000
RightFoot 30.357925 6.479589 -4.380335
RightToeBase 35.386867 -0.000000 -0.000000
